<?xml version="1.0" encoding="iso-8859-1"?>
<!-- Generator: Adobe Illustrator 18.1.1, SVG Export Plug-In . SVG Version: 6.00 Build 0)  -->
<svg version="1.1" id="Capa_1" xmlns="http://www.w3.org/2000/svg" xmlns:xlink="http://www.w3.org/1999/xlink" x="0px" y="0px"
	 viewBox="0 0 28.978 28.978" style="enable-background:new 0 0 28.978 28.978;" xml:space="preserve">
<g>
	<g>
		<path d="M14.488,0C6.487,0,0,6.488,0,14.49c0,8.003,6.486,14.487,14.488,14.487c8.003,0.002,14.49-6.483,14.49-14.487
			C28.978,6.488,22.492,0,14.488,0z M14.489,26.558c-6.664,0-12.066-5.401-12.066-12.068c0-6.664,5.404-12.071,12.066-12.071
			c6.667,0,12.069,5.408,12.069,12.071C26.558,21.156,21.157,26.558,14.489,26.558z"/>
		<path d="M14.824,8.002c-0.089-0.107-0.222-0.169-0.361-0.168S14.192,7.9,14.106,8.01l-3.742,4.761
			c-0.109,0.138-0.129,0.327-0.053,0.485c0.077,0.158,0.237,0.26,0.414,0.26c0.775,0,1.566,0,1.566,0s0,6.358,0,7.681
			c0,0-0.011,0.308,0.392,0.308c0.398,0,3.098,0,3.662,0c0.559,0,0.463-0.371,0.463-0.371c0-1.361,0-7.615,0-7.615s0.732,0,1.57,0
			c0.179,0,0.341-0.102,0.417-0.263c0.075-0.161,0.052-0.351-0.062-0.488L14.824,8.002z"/>
	</g>
</g>
<g>
</g>
<g>
</g>
<g>
</g>
<g>
</g>
<g>
</g>
<g>
</g>
<g>
</g>
<g>
</g>
<g>
</g>
<g>
</g>
<g>
</g>
<g>
</g>
<g>
</g>
<g>
</g>
<g>
</g>
</svg>
